<?xml version="1.0" encoding="utf-8" standalone="no"?>
<!DOCTYPE svg PUBLIC "-//W3C//DTD SVG 1.1//EN"
  "http://www.w3.org/Graphics/SVG/1.1/DTD/svg11.dtd">
<svg xmlns:xlink="http://www.w3.org/1999/xlink" width="987.239219pt" height="291.021187pt" viewBox="0 0 987.239219 291.021187" xmlns="http://www.w3.org/2000/svg" version="1.1">
 <metadata>
  <rdf:RDF xmlns:dc="http://purl.org/dc/elements/1.1/" xmlns:cc="http://creativecommons.org/ns#" xmlns:rdf="http://www.w3.org/1999/02/22-rdf-syntax-ns#">
   <cc:Work>
    <dc:type rdf:resource="http://purl.org/dc/dcmitype/StillImage"/>
    <dc:date>2026-04-01T09:38:03.072480</dc:date>
    <dc:format>image/svg+xml</dc:format>
    <dc:creator>
     <cc:Agent>
      <dc:title>Matplotlib v3.8.0, https://matplotlib.org/</dc:title>
     </cc:Agent>
    </dc:creator>
   </cc:Work>
  </rdf:RDF>
 </metadata>
 <defs>
  <style type="text/css">*{stroke-linejoin: round; stroke-linecap: butt}</style>
 </defs>
 <g id="figure_1">
  <g id="patch_1">
   <path d="M 0 291.021187 
L 987.239219 291.021187 
L 987.239219 0 
L 0 0 
z
" style="fill: #ffffff"/>
  </g>
  <g id="axes_1">
   <g id="patch_2">
    <path d="M 136.284 196.614067 
L 243.916 196.614067 
Q 248.721 196.614067 248.721 190.515667 
L 248.721 139.289107 
Q 248.721 133.190707 243.916 133.190707 
L 136.284 133.190707 
Q 131.479 133.190707 131.479 139.289107 
L 131.479 190.515667 
Q 131.479 196.614067 136.284 196.614067 
z
" clip-path="url(#p55d5573817)" style="fill: #d9ed92; stroke: #16324f; stroke-width: 1.6; stroke-linejoin: miter"/>
   </g>
   <g id="patch_3">
    <path d="M 275.629 196.614067 
L 392.871 196.614067 
Q 397.676 196.614067 397.676 190.515667 
L 397.676 139.289107 
Q 397.676 133.190707 392.871 133.190707 
L 275.629 133.190707 
Q 270.824 133.190707 270.824 139.289107 
L 270.824 190.515667 
Q 270.824 196.614067 275.629 196.614067 
z
" clip-path="url(#p55d5573817)" style="fill: #b5e48c; stroke: #16324f; stroke-width: 1.6; stroke-linejoin: miter"/>
   </g>
   <g id="patch_4">
    <path d="M 424.584 196.614067 
L 532.216 196.614067 
Q 537.021 196.614067 537.021 190.515667 
L 537.021 139.289107 
Q 537.021 133.190707 532.216 133.190707 
L 424.584 133.190707 
Q 419.779 133.190707 419.779 139.289107 
L 419.779 190.515667 
Q 419.779 196.614067 424.584 196.614067 
z
" clip-path="url(#p55d5573817)" style="fill: #76c893; stroke: #16324f; stroke-width: 1.6; stroke-linejoin: miter"/>
   </g>
   <g id="patch_5">
    <path d="M 563.929 196.614067 
L 671.561 196.614067 
Q 676.366 196.614067 676.366 190.515667 
L 676.366 139.289107 
Q 676.366 133.190707 671.561 133.190707 
L 563.929 133.190707 
Q 559.124 133.190707 559.124 139.289107 
L 559.124 190.515667 
Q 559.124 196.614067 563.929 196.614067 
z
" clip-path="url(#p55d5573817)" style="fill: #52b69a; stroke: #16324f; stroke-width: 1.6; stroke-linejoin: miter"/>
   </g>
   <g id="patch_6">
    <path d="M 703.274 196.614067 
L 820.516 196.614067 
Q 825.321 196.614067 825.321 190.515667 
L 825.321 139.289107 
Q 825.321 133.190707 820.516 133.190707 
L 703.274 133.190707 
Q 698.469 133.190707 698.469 139.289107 
L 698.469 190.515667 
Q 698.469 196.614067 703.274 196.614067 
z
" clip-path="url(#p55d5573817)" style="fill: #34a0a4; stroke: #16324f; stroke-width: 1.6; stroke-linejoin: miter"/>
   </g>
   <g id="patch_7">
    <path d="M 852.229 196.614067 
L 950.251 196.614067 
Q 955.056 196.614067 955.056 190.515667 
L 955.056 139.289107 
Q 955.056 133.190707 950.251 133.190707 
L 852.229 133.190707 
Q 847.424 133.190707 847.424 139.289107 
L 847.424 190.515667 
Q 847.424 196.614067 852.229 196.614067 
z
" clip-path="url(#p55d5573817)" style="fill: #a9def9; stroke: #16324f; stroke-width: 1.6; stroke-linejoin: miter"/>
   </g>
   <g id="patch_8">
    <path d="M 212.099944 164.902387 
Q 262.176322 164.902387 310.24024 164.902387 
" clip-path="url(#p55d5573817)" style="fill: none; stroke: #16324f; stroke-width: 1.8; stroke-linecap: round"/>
    <path d="M 304.24024 161.902387 
L 310.24024 164.902387 
L 304.24024 167.902387 
z
" clip-path="url(#p55d5573817)" style="fill: #16324f; stroke: #16324f; stroke-width: 1.8; stroke-linecap: round"/>
   </g>
   <g id="patch_9">
    <path d="M 356.249944 164.902387 
Q 406.326322 164.902387 454.39024 164.902387 
" clip-path="url(#p55d5573817)" style="fill: none; stroke: #16324f; stroke-width: 1.8; stroke-linecap: round"/>
    <path d="M 448.39024 161.902387 
L 454.39024 164.902387 
L 448.39024 167.902387 
z
" clip-path="url(#p55d5573817)" style="fill: #16324f; stroke: #16324f; stroke-width: 1.8; stroke-linecap: round"/>
   </g>
   <g id="patch_10">
    <path d="M 500.398037 164.902387 
Q 548.072031 164.902387 593.733564 164.902387 
" clip-path="url(#p55d5573817)" style="fill: none; stroke: #16324f; stroke-width: 1.8; stroke-linecap: round"/>
    <path d="M 587.733564 161.902387 
L 593.733564 164.902387 
L 587.733564 167.902387 
z
" clip-path="url(#p55d5573817)" style="fill: #16324f; stroke: #16324f; stroke-width: 1.8; stroke-linecap: round"/>
   </g>
   <g id="patch_11">
    <path d="M 639.744944 164.902387 
Q 689.821322 164.902387 737.88524 164.902387 
" clip-path="url(#p55d5573817)" style="fill: none; stroke: #16324f; stroke-width: 1.8; stroke-linecap: round"/>
    <path d="M 731.88524 161.902387 
L 737.88524 164.902387 
L 731.88524 167.902387 
z
" clip-path="url(#p55d5573817)" style="fill: #16324f; stroke: #16324f; stroke-width: 1.8; stroke-linecap: round"/>
   </g>
   <g id="patch_12">
    <path d="M 783.893037 164.902387 
Q 831.567031 164.902387 877.228564 164.902387 
" clip-path="url(#p55d5573817)" style="fill: none; stroke: #16324f; stroke-width: 1.8; stroke-linecap: round"/>
    <path d="M 871.228564 161.902387 
L 877.228564 164.902387 
L 871.228564 167.902387 
z
" clip-path="url(#p55d5573817)" style="fill: #16324f; stroke: #16324f; stroke-width: 1.8; stroke-linecap: round"/>
   </g>
   <g id="text_1">
    <text style="fill: #16324f; font: 700 11.5px 'DejaVu Sans', 'Bitstream Vera Sans', 'Computer Modern Sans Serif', 'Lucida Grande', 'Verdana', 'Geneva', 'Lucid', 'Arial', 'Helvetica', 'Avant Garde', sans-serif; text-anchor: middle" x="190.1" y="160.712667" transform="rotate(-0 190.1 160.712667)">1. Environment Layer</text>
   </g>
   <g id="text_2">
    <text style="fill: #334155; font: 9px 'DejaVu Sans', 'Bitstream Vera Sans', 'Computer Modern Sans Serif', 'Lucida Grande', 'Verdana', 'Geneva', 'Lucid', 'Arial', 'Helvetica', 'Avant Garde', sans-serif; text-anchor: middle" x="190.1" y="177.647636" transform="rotate(-0 190.1 177.647636)">CityLearn | Grid2Op | FinRL</text>
   </g>
   <g id="text_3">
    <text style="fill: #16324f; font: 700 11.5px 'DejaVu Sans', 'Bitstream Vera Sans', 'Computer Modern Sans Serif', 'Lucida Grande', 'Verdana', 'Geneva', 'Lucid', 'Arial', 'Helvetica', 'Avant Garde', sans-serif; text-anchor: middle" x="334.25" y="160.757589" transform="rotate(-0 334.25 160.757589)">2. Oracle Calibration</text>
   </g>
   <g id="text_4">
    <text style="fill: #334155; font: 9px 'DejaVu Sans', 'Bitstream Vera Sans', 'Computer Modern Sans Serif', 'Lucida Grande', 'Verdana', 'Geneva', 'Lucid', 'Arial', 'Helvetica', 'Avant Garde', sans-serif; text-anchor: middle" x="334.25" y="177.647636" transform="rotate(-0 334.25 177.647636)">Random | DoNothing | Rule | PPO | FutureAware</text>
   </g>
   <g id="text_5">
    <text style="fill: #16324f; font: 700 11.5px 'DejaVu Sans', 'Bitstream Vera Sans', 'Computer Modern Sans Serif', 'Lucida Grande', 'Verdana', 'Geneva', 'Lucid', 'Arial', 'Helvetica', 'Avant Garde', sans-serif; text-anchor: middle" x="478.4" y="160.712667" transform="rotate(-0 478.4 160.712667)">3. EAIP Design</text>
   </g>
   <g id="text_6">
    <text style="fill: #334155; font: 9px 'DejaVu Sans', 'Bitstream Vera Sans', 'Computer Modern Sans Serif', 'Lucida Grande', 'Verdana', 'Geneva', 'Lucid', 'Arial', 'Helvetica', 'Avant Garde', sans-serif; text-anchor: middle" x="478.4" y="177.647636" transform="rotate(-0 478.4 177.647636)">S1 Raw | S2 Structured | S3 History</text>
   </g>
   <g id="text_7">
    <text style="fill: #16324f; font: 700 11.5px 'DejaVu Sans', 'Bitstream Vera Sans', 'Computer Modern Sans Serif', 'Lucida Grande', 'Verdana', 'Geneva', 'Lucid', 'Arial', 'Helvetica', 'Avant Garde', sans-serif; text-anchor: middle" x="617.745" y="160.757589" transform="rotate(-0 617.745 160.757589)">4. LLM Evaluation</text>
   </g>
   <g id="text_8">
    <text style="fill: #334155; font: 9px 'DejaVu Sans', 'Bitstream Vera Sans', 'Computer Modern Sans Serif', 'Lucida Grande', 'Verdana', 'Geneva', 'Lucid', 'Arial', 'Helvetica', 'Avant Garde', sans-serif; text-anchor: middle" x="617.745" y="177.753105" transform="rotate(-0 617.745 177.753105)">Run agents across environments</text>
   </g>
   <g id="text_9">
    <text style="fill: #16324f; font: 700 11.5px 'DejaVu Sans', 'Bitstream Vera Sans', 'Computer Modern Sans Serif', 'Lucida Grande', 'Verdana', 'Geneva', 'Lucid', 'Arial', 'Helvetica', 'Avant Garde', sans-serif; text-anchor: middle" x="761.895" y="160.757589" transform="rotate(-0 761.895 160.757589)">5. Metrics</text>
   </g>
   <g id="text_10">
    <text style="fill: #334155; font: 9px 'DejaVu Sans', 'Bitstream Vera Sans', 'Computer Modern Sans Serif', 'Lucida Grande', 'Verdana', 'Geneva', 'Lucid', 'Arial', 'Helvetica', 'Avant Garde', sans-serif; text-anchor: middle" x="761.895" y="177.647636" transform="rotate(-0 761.895 177.647636)">Reward | Safety | Efficiency | Robustness</text>
   </g>
   <g id="text_11">
    <text style="fill: #16324f; font: 700 11.5px 'DejaVu Sans', 'Bitstream Vera Sans', 'Computer Modern Sans Serif', 'Lucida Grande', 'Verdana', 'Geneva', 'Lucid', 'Arial', 'Helvetica', 'Avant Garde', sans-serif; text-anchor: middle" x="901.24" y="160.757589" transform="rotate(-0 901.24 160.757589)">6. Research Output</text>
   </g>
   <g id="text_12">
    <text style="fill: #334155; font: 9px 'DejaVu Sans', 'Bitstream Vera Sans', 'Computer Modern Sans Serif', 'Lucida Grande', 'Verdana', 'Geneva', 'Lucid', 'Arial', 'Helvetica', 'Avant Garde', sans-serif; text-anchor: middle" x="901.24" y="177.647636" transform="rotate(-0 901.24 177.647636)">EAIP effect | Cross-domain findings</text>
   </g>
  </g>
  <g id="text_13">
   <text style="fill: #16324f; font: 700 18px 'DejaVu Sans', 'Bitstream Vera Sans', 'Computer Modern Sans Serif', 'Lucida Grande', 'Verdana', 'Geneva', 'Lucid', 'Arial', 'Helvetica', 'Avant Garde', sans-serif; text-anchor: start" x="7.2" y="20.877187" transform="rotate(-0 7.2 20.877187)">TS-AgentBench Research Workflow</text>
  </g>
  <g id="text_14">
   <text style="fill: #4b5563; font: 10.5px 'DejaVu Sans', 'Bitstream Vera Sans', 'Computer Modern Sans Serif', 'Lucida Grande', 'Verdana', 'Geneva', 'Lucid', 'Arial', 'Helvetica', 'Avant Garde', sans-serif; text-anchor: start" x="7.2" y="38.301187" transform="rotate(-0 7.2 38.301187)">Current pipeline: benchmark construction, baseline calibration, EAIP interface study, and cross-domain evaluation</text>
  </g>
 </g>
 <defs>
  <clipPath id="p55d5573817">
   <rect x="113.22" y="39.885187" width="864.9" height="243.936"/>
  </clipPath>
 </defs>
</svg>
